<?xml version="1.0" standalone="yes"?>
<svg xmlns="http://www.w3.org/2000/svg" width="384" height="384">
<path style="fill:#9c9b9e; stroke:none;" d="M162 33L162 34L165 34L162 33z"/>
<path style="fill:#785c4b; stroke:none;" d="M163 34L163 35L189 37C182.33 32.0365 170.794 32.1443 163 34z"/>
<path style="fill:#9c9b9e; stroke:none;" d="M178 33L179 34L178 33M156.667 34.3333L157.333 34.6667L156.667 34.3333z"/>
<path style="fill:#785c4b; stroke:none;" d="M140 40L140 41L162 35C155.433 32.6508 146.254 37.8842 140 40z"/>
<path style="fill:#3a271b; stroke:none;" d="M104 169C104.95 160.497 121.979 148.034 129 143C130.085 111.901 162.51 75.6385 196 88.2253C217.558 96.3276 235.237 123.236 251 139L239 138C242.12 143.658 248.779 141.179 254 143.92C266.151 150.3 277.848 158.805 281 172C290.458 167.419 296.298 154.694 298.988 145C306.509 117.908 298.986 90.3699 281.385 69C266.333 50.7247 240.879 37.0851 217 36.0394C209.756 35.7221 202.187 41.1455 196 40.5062C191.365 40.0273 186.854 36.0178 182 35.0949C167.103 32.2624 150.368 35.357 137 42.5139C105.256 59.5083 81.6022 93.0986 83.0401 130C83.642 145.447 85.0509 166.522 104 169z"/>
<path style="fill:#9c9b9e; stroke:none;" d="M152.667 35.3333L153.333 35.6667L152.667 35.3333z"/>
<path style="fill:#dab498; stroke:none;" d="M187 35L188 36L187 35z"/>
<path style="fill:#9c9b9e; stroke:none;" d="M207 35L208 36L207 35z"/>
<path style="fill:#785c4b; stroke:none;" d="M208 35L208 36L234 39C227.112 34.2136 216.064 35 208 35z"/>
<path style="fill:#9c9b9e; stroke:none;" d="M221.667 35.3333L222.333 35.6667L221.667 35.3333M149 36L150 37L149 36M189 36L190 37L189 36z"/>
<path style="fill:#785c4b; stroke:none;" d="M203 37L203 38L207 37L203 37z"/>
<path style="fill:#9c9b9e; stroke:none;" d="M227 36L228 37L227 36M146 37L147 38L146 37z"/>
<path style="fill:#785c4b; stroke:none;" d="M190 37L190 38L199 41L199 40L190 37z"/>
<path style="fill:#9c9b9e; stroke:none;" d="M202 37L203 38L202 37M144 38L145 39L144 38M200 38L199 40L200 38z"/>
<path style="fill:#785c4b; stroke:none;" d="M201 38L202 39L201 38z"/>
<path style="fill:#9c9b9e; stroke:none;" d="M234 38L235 39L234 38M141 39L142 40L141 39z"/>
<path style="fill:#785c4b; stroke:none;" d="M116 65L117 67C113.694 69.3364 113.949 72.3345 115 76L113 76C117.623 84.2325 125.827 76.3965 133 75L128 85C131.637 85.9447 135.316 89.3348 139.039 89.2662C143.49 89.1842 148.002 85.5581 152 83.8758C160.429 80.3283 177.471 81.1106 183.682 74.6968C186.777 71.5007 186.008 66.0792 186.884 62C188.087 56.3999 190.706 48.5379 186.91 43.3943C183.078 38.2005 173.565 39.7781 168 39.9645C146.317 40.6909 131.937 51.436 116 65z"/>
<path style="fill:#dab498; stroke:none;" d="M194 39L195 40L194 39z"/>
<path style="fill:#785c4b; stroke:none;" d="M235 39L235 40L250 45L250 44L235 39z"/>
<path style="fill:#9c9b9e; stroke:none;" d="M139 40L140 41L139 40M137 41L138 42L137 41z"/>
<path style="fill:#785c4b; stroke:none;" d="M138 41L139 42L138 41M257 90L257 84C264.142 79.8355 264.811 65.2387 259.721 59.0146C251.904 49.4569 225.708 36.8974 213.044 41.8974C204.624 45.2218 209.466 56.5068 209.91 63C210.258 68.0674 208.181 73.0944 208.773 78C209.989 88.0657 220.272 95.0079 227.112 101.424C230.027 104.158 234.352 110.432 238.777 110.368C249.564 110.213 241.204 91.0901 244.697 87.777C247.44 85.1748 254.103 89.0217 257 90M136 42L135 44L136 42z"/>
<path style="fill:#9c9b9e; stroke:none;" d="M134 43L135 44L134 43M132 44L133 45L132 44z"/>
<path style="fill:#785c4b; stroke:none;" d="M133 44L134 45L133 44z"/>
<path style="fill:#9c9b9e; stroke:none;" d="M250 44L251 45L250 44M130 45L131 46L130 45z"/>
<path style="fill:#785c4b; stroke:none;" d="M131.667 45.3333L132.333 45.6667L131.667 45.3333M251 45L251 46L281 68C274.015 58.0904 262.14 49.6626 251 45M129 46L127 49L129 46z"/>
<path style="fill:#dab498; stroke:none;" d="M127 47L128 48L127 47z"/>
<path style="fill:#9c9b9e; stroke:none;" d="M126 48L127 49L126 48z"/>
<path style="fill:#785c4b; stroke:none;" d="M125 49L120 54L125 49z"/>
<path style="fill:#9c9b9e; stroke:none;" d="M259 49L260 50L259 49M123 50L124 51L123 50M119 53L117 56L119 53z"/>
<path style="fill:#785c4b; stroke:none;" d="M118 55L119 56L118 55M116 56L105 68L116 56z"/>
<path style="fill:#9c9b9e; stroke:none;" d="M271 58L272 59L271 58z"/>
<path style="fill:#dab498; stroke:none;" d="M112 59L113 60L112 59M110 61L109 63L110 61M107 64L108 65L107 64z"/>
<path style="fill:#9c9b9e; stroke:none;" d="M104 68L105 69L104 68M281 68L283 70L281 68z"/>
<path style="fill:#785c4b; stroke:none;" d="M281 69L282 70L281 69z"/>
<path style="fill:#dab498; stroke:none;" d="M102 70L103 71L102 70z"/>
<path style="fill:#785c4b; stroke:none;" d="M103 70L104 71L103 70M282 70L285 73L282 70M102 71L101 73L102 71z"/>
<path style="fill:#dab498; stroke:none;" d="M284 71L285 72L284 71M100 73L99 75L100 73z"/>
<path style="fill:#9c9b9e; stroke:none;" d="M285 73L286 74L285 73z"/>
<path style="fill:#785c4b; stroke:none;" d="M100 74L101 75L100 74M285 74L288 77L285 74M99 75L100 76L99 75z"/>
<path style="fill:#9c9b9e; stroke:none;" d="M98 76L99 77L98 76z"/>
<path style="fill:#dab498; stroke:none;" d="M97 77L96 79L97 77z"/>
<path style="fill:#9c9b9e; stroke:none;" d="M288 77L289 78L288 77z"/>
<path style="fill:#785c4b; stroke:none;" d="M97 78L98 79L97 78M288 78L290 80L288 78z"/>
<path style="fill:#9c9b9e; stroke:none;" d="M96 79L97 80L96 79z"/>
<path style="fill:#dab498; stroke:none;" d="M95 80L96 81L95 80z"/>
<path style="fill:#785c4b; stroke:none;" d="M96 80L97 81L96 80z"/>
<path style="fill:#9c9b9e; stroke:none;" d="M290 80L291 81L290 80z"/>
<path style="fill:#785c4b; stroke:none;" d="M95 81L96 82L95 81M290 81L291 82L290 81z"/>
<path style="fill:#dab498; stroke:none;" d="M94 82L95 83L94 82z"/>
<path style="fill:#9c9b9e; stroke:none;" d="M291 82L292 83L291 82z"/>
<path style="fill:#785c4b; stroke:none;" d="M94 83L95 84L94 83M291 83L292 84L291 83z"/>
<path style="fill:#dab498; stroke:none;" d="M93 84L94 85L93 84z"/>
<path style="fill:#9c9b9e; stroke:none;" d="M292 84L293 85L292 84z"/>
<path style="fill:#785c4b; stroke:none;" d="M93 85L94 86L93 85z"/>
<path style="fill:#dab498; stroke:none;" d="M92 86L91 88L92 86z"/>
<path style="fill:#785c4b; stroke:none;" d="M293 86L294 87L293 86M92 87L93 88L92 87M129 143C121.542 146.584 104.457 160.683 104 169L90 164L90 165C99.6501 173.564 101.903 181.44 102 194L101 194C98.2946 185.542 96.3746 175.214 87 172L95.5826 184L101 203L102 203L102 201L103 201L104 209L111 209C109.425 197.302 101.497 180.526 106.184 169C108.95 162.201 116.021 157.599 121 152.536C125.162 148.305 128.829 143.532 135 142.34C146.147 140.187 157.809 144.993 169 145C166.047 134.905 138.92 138.903 131 139C136.322 123.37 144.594 110.257 160 103.312C169.244 99.1447 188.846 99.1106 192 88C199.149 89.4588 201.099 96.7962 205.439 102C215.345 113.876 225.824 125.35 236 137L215 142L215 145C222.841 144.995 232.534 141.003 240.09 143.383C247.269 145.644 253.306 152.639 260 156.219C266.624 159.762 276.169 163.996 278.269 171.996C281.132 182.908 275.211 198.283 273 209L280 209L281 199L282 199L282 203L283 203C285.461 189.946 290.533 183.89 297 173L296 172C287.599 176.453 287.169 185.021 282 192L282 178C287.031 175.445 291.381 169.759 291 164L281 172C278.523 158.665 266.554 149.14 254 143.417C248.459 140.892 243.262 143.116 239 138L251 139C241.055 124.882 226.92 112.218 214 100.845C208.854 96.3154 202.732 89.8457 196 87.7662C192.793 86.7755 189.301 88.0087 186 87.6999C159.099 85.183 142.448 100.734 134 125C132.029 130.661 128.255 136.966 129 143z"/>
<path style="fill:#9c9b9e; stroke:none;" d="M294 87L295 88L294 87M91 88L92 89L91 88M192 88C186.95 98.709 170.906 98.4403 161 102.453C145.267 108.826 134.913 122.524 131 139L168 142L168 141C156.129 137.663 145.171 137.04 133 138C138.199 124.6 145.252 111.563 159 105.439C168.341 101.279 189.108 100.442 193 90L205.921 105L234 137L216 141L216 142L236 137C227.761 123.829 215.372 112.909 205.439 101C201.105 95.8036 199.352 88.828 192 88z"/>
<path style="fill:#785c4b; stroke:none;" d="M294 88L295 89L294 88M91 89L92 90L91 89z"/>
<path style="fill:#dab498; stroke:none;" d="M90 90L91 91L90 90M193 90C187.357 99.9213 170.866 100.282 161 104.204C146.336 110.032 137.097 123.022 133 138C146.271 137.43 157.084 138.547 170 142C165.024 151.022 142.286 140.864 133.004 143.434C107.756 150.423 113.157 191.127 120 209L115 209L115 210C119.402 210 130.384 211.515 132.843 206.686C135.32 201.824 130.15 190.514 130 185L127 186L125 177L125 176C118.21 167.982 138.123 161.269 144 161L144 160L136 155L149 152L153 158L146 159L146 160C154.055 162.553 163.729 164.719 169 172L171 170C174.205 174.731 178.343 179.334 171 182C172.556 187.172 177.404 192.94 181.523 185.861C185.481 179.06 183.546 171.024 186.231 164C187.231 161.385 193.43 151.095 194 159C197.317 159.433 197.508 163.004 198.306 166C200.13 172.855 204.473 203.821 213 182C202.72 180.287 211.069 170.017 215 171L215 169L239 160L239 159L235 156L234 156L231 159C231.739 152.143 238.808 153.178 244 151L246 155L248 154L249 155C243.635 165.787 265.586 165.854 259 177L255.593 185.005L250 207L269 210L269 209L263 209C269.288 199.592 268.102 186.84 268.69 176.015C268.88 172.514 269.989 166.525 267.972 163.471C266.108 160.647 261.804 159.23 259 157.551C252.683 153.768 246.714 147.132 240 144.404C232.177 141.225 218.83 150.758 214 142L234 137L205.084 103L193 90z"/>
<path style="fill:#9c9b9e; stroke:none;" d="M295 90L296 91L295 90z"/>
<path style="fill:#785c4b; stroke:none;" d="M90 91L91 92L90 91M295 91L296 92L295 91z"/>
<path style="fill:#dab498; stroke:none;" d="M89 92L90 93L89 92z"/>
<path style="fill:#9c9b9e; stroke:none;" d="M296 92L297 93L296 92M89 93L90 94L89 93z"/>
<path style="fill:#785c4b; stroke:none;" d="M296 93L297 94L296 93M89 94L90 95L89 94z"/>
<path style="fill:#dab498; stroke:none;" d="M224 134L218 138L218 136L208 138C197.588 151.864 181.381 140.196 168.985 137.65C163.917 136.609 154.954 138.553 153 133L149 134L141 127C148.773 108.186 164.943 104.878 183 99.6111C186.403 98.6184 192.404 93.1179 195.778 94.75C198.885 96.2528 201.478 101.36 203.611 104C209.417 111.187 224.681 122.787 226.389 132C226.809 134.265 225.311 135.743 224 134M88 95L89 96L88 95z"/>
<path style="fill:#9c9b9e; stroke:none;" d="M297 95L298 96L297 95z"/>
<path style="fill:#785c4b; stroke:none;" d="M88 96L89 97L88 96M297 96L298 97L297 96z"/>
<path style="fill:#dab498; stroke:none;" d="M87 97L88 98L87 97z"/>
<path style="fill:#9c9b9e; stroke:none;" d="M298 97L299 98L298 97M87 98L88 99L87 98z"/>
<path style="fill:#785c4b; stroke:none;" d="M298.333 98.6667L298.667 99.3333L298.333 98.6667M87 99L88 100L87 99z"/>
<path style="fill:#9c9b9e; stroke:none;" d="M86 101L87 102L86 101M299 101L300 102L299 101z"/>
<path style="fill:#785c4b; stroke:none;" d="M86 102L87 103L86 102M299.333 102.667L299.667 103.333L299.333 102.667z"/>
<path style="fill:#dab498; stroke:none;" d="M85 104L86 105L85 104z"/>
<path style="fill:#9c9b9e; stroke:none;" d="M85 105L86 106L85 105z"/>
<path style="fill:#dab498; stroke:none;" d="M300 105L301 106L300 105z"/>
<path style="fill:#785c4b; stroke:none;" d="M85 106L86 107L85 106M300.333 106.667L300.667 107.333L300.333 106.667z"/>
<path style="fill:#9c9b9e; stroke:none;" d="M84 109L84 112L85 112L84 109z"/>
<path style="fill:#785c4b; stroke:none;" d="M84 112L85 113L84 112z"/>
<path style="fill:#9c9b9e; stroke:none;" d="M301.333 112.667L301.667 113.333L301.333 112.667z"/>
<path style="fill:#785c4b; stroke:none;" d="M301 114L301 117L302 117L301 114z"/>
<path style="fill:#9c9b9e; stroke:none;" d="M83 116L83 119L84 119L83 116z"/>
<path style="fill:#785c4b; stroke:none;" d="M83 119L83 123L84 123L83 119M301 130L301 133L302 133L301 130z"/>
<path style="fill:#9c9b9e; stroke:none;" d="M301.333 133.667L301.667 134.333L301.333 133.667z"/>
<path style="fill:#785c4b; stroke:none;" d="M83 134L83 143L84 143L83 134z"/>
<path style="fill:#dab498; stroke:none;" d="M156 134L159 136L159 135L156 134M228 136L227 137L228 136M230 136L229 137L230 136z"/>
<path style="fill:#785c4b; stroke:none;" d="M300 138L301 139L300 138z"/>
<path style="fill:#9c9b9e; stroke:none;" d="M300.333 139.667L300.667 140.333L300.333 139.667M133 142L133 143L155 144L133 142M169 142L169 145L170 145L169 142M214 142L214 145L215 145L214 142M236 142L229 143L229 144L236 142M83 143L83 146L84 146L83 143M130.667 143.333L131.333 143.667L130.667 143.333M238 143L238 144C245.166 147.282 251.161 153.456 258 157.551C261.12 159.419 266.029 161.003 267.968 164.263C269.824 167.382 268.431 172.602 268.344 176.09C268.058 187.528 268.288 198.537 263 209C268.349 209.23 278.917 212.545 283.298 208.397C292.378 199.798 283.909 182.856 299 179L297 170C291.154 172.045 287.715 177.214 286 183L285 183C286.216 177.87 296.391 168.22 291 164C290.255 169.793 286.554 174.506 282 178L282 192L296 172L297 173C288.611 182.62 284.639 190.103 283 203L282 203L282 199L281 199L280 209L273 209C275.952 198.494 283.436 176.864 276.347 167.04C271.301 160.046 261.945 157.252 255 152.644C249.465 148.972 244.833 143.76 238 143M299.333 143.667L299.667 144.333L299.333 143.667M129 144L130 145L129 144M155 144L155 145L160 145L155 144M224 144L224 145L229 145L224 144M111 209L104 209L103 201L102 201L102 203L101 203C99.2582 189.512 93.2495 183.098 87 172L95 179L96 179L87 170L86 180C98.7374 181.326 93.6702 200.054 99.9946 207.682C104.048 212.571 114.596 209.427 120 209C116.394 196.293 110.444 173.729 116.172 160.961C118.89 154.903 125.612 150.862 129 145C124.922 146.942 122.586 150.232 119.385 153.335C114.761 157.818 108.772 161.903 106.039 167.961C101.065 178.982 108.701 197.855 111 209M161 145L161 146L169 146L161 145M215 145L215 146L223 146L215 145M298.333 146.667L298.667 147.333L298.333 146.667z"/>
<path style="fill:#785c4b; stroke:none;" d="M84.3333 148.667L84.6667 149.333L84.3333 148.667z"/>
<path style="fill:#9c9b9e; stroke:none;" d="M84 150L85 151L84 150M297 150L298 151L297 150z"/>
<path style="fill:#785c4b; stroke:none;" d="M85 151L86 152L85 151z"/>
<path style="fill:#dab498; stroke:none;" d="M85 152L86 153L85 152z"/>
<path style="fill:#9c9b9e; stroke:none;" d="M296 152L297 153L296 152z"/>
<path style="fill:#785c4b; stroke:none;" d="M86 153L87 156L88 156L86 153z"/>
<path style="fill:#9c9b9e; stroke:none;" d="M295 154L296 155L295 154z"/>
<path style="fill:#dab498; stroke:none;" d="M230 155L229 156L230 155M87 156L88 157L87 156M236 156L237 157L236 156M245 156L246 157L245 156z"/>
<path style="fill:#9c9b9e; stroke:none;" d="M294 156L295 157L294 156z"/>
<path style="fill:#dab498; stroke:none;" d="M140 157L141 158L140 157M229 157L228 158L229 157z"/>
<path style="fill:#785c4b; stroke:none;" d="M293 157L292 159L293 157M88 158L89 159L88 158z"/>
<path style="fill:#dab498; stroke:none;" d="M135 158L138 161L135 158z"/>
<path style="fill:#9c9b9e; stroke:none;" d="M88 159L89 160L88 159z"/>
<path style="fill:#dab498; stroke:none;" d="M240 160L240 161L245 161L240 160z"/>
<path style="fill:#9c9b9e; stroke:none;" d="M292 159L293 160L292 159M144 160L144 161L147 161L144 160M237 160L237 161L240 161L237 160z"/>
<path style="fill:#785c4b; stroke:none;" d="M89.3333 161.667L89.6667 162.333L89.3333 161.667z"/>
<path style="fill:#9c9b9e; stroke:none;" d="M138.667 161.333L139.333 161.667L138.667 161.333z"/>
<path style="fill:#785c4b; stroke:none;" d="M140 161L140 162L143 162L140 161z"/>
<path style="fill:#3a271b; stroke:none;" d="M125 173L138 166C135.147 171.093 134.652 175.336 136 181L137 181L138 175L139 175C142.228 190.985 161.6 184.162 158 169L169 178C169.771 172.379 163.375 167.765 158.999 165.233C147.583 158.627 131.802 160.932 125 173z"/>
<path style="fill:#785c4b; stroke:none;" d="M147 161L147 162L151 162L147 161z"/>
<path style="fill:#9c9b9e; stroke:none;" d="M151.667 161.333L152.333 161.667L151.667 161.333M231.667 161.333L232.333 161.667L231.667 161.333z"/>
<path style="fill:#785c4b; stroke:none;" d="M233 161L233 162L238 162L233 161z"/>
<path style="fill:#3a271b; stroke:none;" d="M214 177L221 172L222 181L223 181L223 177C225.84 179.686 228.03 183.189 232.004 184.332C244.041 187.794 244.717 173.456 242 166L258 172C248.368 153.968 221.486 161.279 214 177z"/>
<path style="fill:#785c4b; stroke:none;" d="M241 161L241 162L244 162L241 161z"/>
<path style="fill:#9c9b9e; stroke:none;" d="M244.667 161.333L245.333 161.667L244.667 161.333z"/>
<path style="fill:#dab498; stroke:none;" d="M246.667 161.333L247.333 161.667L246.667 161.333z"/>
<path style="fill:#9c9b9e; stroke:none;" d="M291.333 161.667L291.667 162.333L291.333 161.667M135 162L136 163L135 162z"/>
<path style="fill:#785c4b; stroke:none;" d="M136 162L136 163L139 163L136 162M153.667 162.333L154.333 162.667L153.667 162.333z"/>
<path style="fill:#9c9b9e; stroke:none;" d="M155 162L156 163L155 162M228 162L229 163L228 162z"/>
<path style="fill:#785c4b; stroke:none;" d="M229.667 162.333L230.333 162.667L229.667 162.333M245 162L245 163L248 163L245 162z"/>
<path style="fill:#9c9b9e; stroke:none;" d="M248 162L249 163L248 162z"/>
<path style="fill:#dab498; stroke:none;" d="M89 163L90 164L89 163z"/>
<path style="fill:#9c9b9e; stroke:none;" d="M133 163L134 164L133 163z"/>
<path style="fill:#785c4b; stroke:none;" d="M134 163L135 164L134 163M156 163L156 164L161 166L161 165L156 163z"/>
<path style="fill:#9c9b9e; stroke:none;" d="M157 163L158 164L157 163M226 163L227 164L226 163z"/>
<path style="fill:#785c4b; stroke:none;" d="M227 163L228 164L227 163M249 163L250 164L249 163z"/>
<path style="fill:#9c9b9e; stroke:none;" d="M250 163L251 164L250 163M131 164L132 165L131 164z"/>
<path style="fill:#785c4b; stroke:none;" d="M132.667 164.333L133.333 164.667L132.667 164.333z"/>
<path style="fill:#9c9b9e; stroke:none;" d="M159 164L160 165L159 164M224 164L223 166L224 164z"/>
<path style="fill:#785c4b; stroke:none;" d="M225 164L226 165L225 164M251 164L258 170L261 175L251 164z"/>
<path style="fill:#9c9b9e; stroke:none;" d="M252 164L253 165L252 164z"/>
<path style="fill:#dab498; stroke:none;" d="M89 165L86 171C92.914 172.041 94.6665 178.387 99 183C100.474 176.309 93.2518 169.733 89 165z"/>
<path style="fill:#9c9b9e; stroke:none;" d="M90 165L99.5 179L98 181L97 181L101 194L102 194C101.976 182.453 101.04 171.487 90 165M129 165L123 174L129 165z"/>
<path style="fill:#785c4b; stroke:none;" d="M127 169L132 165L127 169M143 165L144 166L143 165M224 165L225 166L224 165M245 165L246 166L245 165z"/>
<path style="fill:#9c9b9e; stroke:none;" d="M254 165L255 166L254 165z"/>
<path style="fill:#dab498; stroke:none;" d="M293 165L285 183L286 183C288.363 177.594 291.638 171.542 298 171L293 165z"/>
<path style="fill:#785c4b; stroke:none;" d="M135 166L136 169L137 169L138 166L135 166z"/>
<path style="fill:#9c9b9e; stroke:none;" d="M141 166L140 168L141 166M145 166L146 167L145 166z"/>
<path style="fill:#785c4b; stroke:none;" d="M154 166L155 167L154 166M161 166L163 168L161 166z"/>
<path style="fill:#9c9b9e; stroke:none;" d="M162 166L163 167L162 166M221 166L220 168L221 166z"/>
<path style="fill:#785c4b; stroke:none;" d="M222 166L223 167L222 166M229 166L230 167L229 166z"/>
<path style="fill:#9c9b9e; stroke:none;" d="M230 166L232 168L230 166z"/>
<path style="fill:#785c4b; stroke:none;" d="M242 166C243.751 172.62 244.545 186.722 233.001 184.242C228.71 183.321 226.472 179.188 223 177L223 181L222 181L221 172L214 177L215 175L214 175L212 181L213 181L220 173C220.405 191.924 237.048 187.718 247 178L247 182L248 182L249 167L249 166L242 166z"/>
<path style="fill:#9c9b9e; stroke:none;" d="M255 166L257 168L257 166L255 166z"/>
<path style="fill:#785c4b; stroke:none;" d="M133 167L134 168L133 167z"/>
<path style="fill:#9c9b9e; stroke:none;" d="M134 167L135 170L136 170L134 167z"/>
<path style="fill:#dab498; stroke:none;" d="M135 167L136 168L135 167z"/>
<path style="fill:#785c4b; stroke:none;" d="M146 167L147 168L146 167z"/>
<path style="fill:#9c9b9e; stroke:none;" d="M163 167L164 168L163 167z"/>
<path style="fill:#785c4b; stroke:none;" d="M221 167L222 168L221 167M227 167L228 168L227 167z"/>
<path style="fill:#9c9b9e; stroke:none;" d="M247 167L248 170L249 170L250 167L247 167z"/>
<path style="fill:#dab498; stroke:none;" d="M248 167L249 168L248 167z"/>
<path style="fill:#9c9b9e; stroke:none;" d="M132 168L133 169L132 168M164 168L165 169L164 168M166 168L165 169C166.338 171.675 174.031 179.258 169 178L169 179L172 179L171 182C179.251 180.238 175.237 169.921 169 172L166 168M215 169L215 171L213 170C209.299 174.051 204.86 180.224 213 182L220 168L215 169M251 168L252 169L251 168z"/>
<path style="fill:#785c4b; stroke:none;" d="M252 168L253 169L252 168z"/>
<path style="fill:#9c9b9e; stroke:none;" d="M257 168L259 170L259 168L257 168z"/>
<path style="fill:#785c4b; stroke:none;" d="M126 169L127 170L126 169M130 169L131 170L130 169z"/>
<path style="fill:#dab498; stroke:none;" d="M131 169L132 170L131 169z"/>
<path style="fill:#785c4b; stroke:none;" d="M158 169C160.635 183.418 144.181 190.228 139 175L138 175C133.328 192.178 153.516 185.825 161 179L160 184L161 184L164 173L169 177L158 169M223 169L224 170L223 169M225 169L226 170L225 169z"/>
<path style="fill:#9c9b9e; stroke:none;" d="M253 169L261 176L261 175L253 169z"/>
<path style="fill:#785c4b; stroke:none;" d="M125.333 170.667L125.667 171.333L125.333 170.667M128 170L129 171L128 170z"/>
<path style="fill:#9c9b9e; stroke:none;" d="M129 170L123 175L123 176L129 170z"/>
<path style="fill:#dab498; stroke:none;" d="M134 170L135 171L134 170z"/>
<path style="fill:#785c4b; stroke:none;" d="M135 170L136 171L135 170z"/>
<path style="fill:#dab498; stroke:none;" d="M140 170L141 171L140 170z"/>
<path style="fill:#785c4b; stroke:none;" d="M146 170L147 171L146 170z"/>
<path style="fill:#9c9b9e; stroke:none;" d="M259 170L262 174L259 170M134 171L134 179L135 179L134 171z"/>
<path style="fill:#dab498; stroke:none;" d="M145 171L146 172L145 171z"/>
<path style="fill:#785c4b; stroke:none;" d="M166 171L167 172L166 171z"/>
<path style="fill:#9c9b9e; stroke:none;" d="M226 171L227 172L226 171M249 171L248 182L247 182L247 178L234 186L234 187C243.223 186.81 253.711 182.252 249 171z"/>
<path style="fill:#785c4b; stroke:none;" d="M124 172L123 175C125.158 174.022 125.501 173.812 124 172M126 172L127 173L126 172M143 172L144 173L143 172M167 172L168 173L167 172M216 172L217 173L216 172M228.667 172.333L229.333 172.667L228.667 172.333z"/>
<path style="fill:#9c9b9e; stroke:none;" d="M164 173L165 174L164 173z"/>
<path style="fill:#785c4b; stroke:none;" d="M168 173L169 174L168 173M215 173L216 174L215 173z"/>
<path style="fill:#9c9b9e; stroke:none;" d="M219 173L220 174L219 173z"/>
<path style="fill:#dab498; stroke:none;" d="M298 173L298 176L299 176L298 173M85 174L86 175L85 174M219 174L220 175L219 174z"/>
<path style="fill:#785c4b; stroke:none;" d="M169 175L170 176L169 175M170 176L170 179L171 179L170 176z"/>
<path style="fill:#dab498; stroke:none;" d="M168 177L169 178L168 177z"/>
<path style="fill:#9c9b9e; stroke:none;" d="M163.333 178.667L163.667 179.333L163.333 178.667M214 178L213 180L214 178z"/>
<path style="fill:#dab498; stroke:none;" d="M85 179L91 210L101 210C97.0626 200.4 97.1731 180.719 85 179M134 179L135 180L134 179z"/>
<path style="fill:#785c4b; stroke:none;" d="M135 179L136 180L135 179z"/>
<path style="fill:#9c9b9e; stroke:none;" d="M160 179L148 186L148 187C153.581 187 158.177 187.59 162 183L160 184L160 183L160 179z"/>
<path style="fill:#785c4b; stroke:none;" d="M171.333 179.667L171.667 180.333L171.333 179.667z"/>
<path style="fill:#9c9b9e; stroke:none;" d="M220 179L221 180L220 179z"/>
<path style="fill:#dab498; stroke:none;" d="M249 179L250 180L249 179M283 210L294 209L299 179C286.683 180.609 286.768 200.232 283 210z"/>
<path style="fill:#9c9b9e; stroke:none;" d="M96 180L97 181L96 180M135 180L137 183L135 180z"/>
<path style="fill:#dab498; stroke:none;" d="M170 180L171 181L170 180z"/>
<path style="fill:#9c9b9e; stroke:none;" d="M162 181L163 182L162 181z"/>
<path style="fill:#dab498; stroke:none;" d="M162 182L163 183L162 182M221 182L222 183L221 182M136 183L137 184L136 183z"/>
<path style="fill:#9c9b9e; stroke:none;" d="M222 183L224 185L222 183z"/>
<path style="fill:#dab498; stroke:none;" d="M247 183L248 184L247 183z"/>
<path style="fill:#9c9b9e; stroke:none;" d="M137 184L138 185L137 184z"/>
<path style="fill:#dab498; stroke:none;" d="M138 185L139 186L138 185z"/>
<path style="fill:#9c9b9e; stroke:none;" d="M139 185L140 186L139 185z"/>
<path style="fill:#dab498; stroke:none;" d="M245 185L246 186L245 185M142 186L143 187L142 186z"/>
<path style="fill:#9c9b9e; stroke:none;" d="M143.667 186.333L144.333 186.667L143.667 186.333z"/>
<path style="fill:#dab498; stroke:none;" d="M159 186L160 187L159 186M224 186L225 187L224 186z"/>
<path style="fill:#9c9b9e; stroke:none;" d="M225 186L226 187L225 186z"/>
<path style="fill:#dab498; stroke:none;" d="M240.667 186.333L241.333 186.667L240.667 186.333z"/>
<path style="fill:#9c9b9e; stroke:none;" d="M86 188L87 189L86 188M101 195L101 198L102 198L101 195M282 195L282 198L283 198L282 195z"/>
<path style="fill:#dab498; stroke:none;" d="M173 209L177 210L179 206L178 210C183.356 208.891 185.658 203.148 191 202.397C196.673 201.6 204.18 214.593 209.267 208.396C211.948 205.13 207.017 198.011 203.895 196.756C200.358 195.335 195.681 196.673 192 196.862C180.82 197.436 176.064 196.099 173 209z"/>
<path style="fill:#9c9b9e; stroke:none;" d="M178 206L176 209L177 210L178 206M205 206L208 209L205 206M90 207L91 208L90 207z"/>
<path style="fill:#dab498; stroke:none;" d="M73 216L80 241L85 239L85 241L91 243L94 241L96 243L99 241L109 246L127 248L125 250L125 251L144 250L155 257L162 254L179 261L180 261L181 261L181 259L182 259L183 259L197 266L196 261L197 261L199 269L200 269L201 267L202 270L203 270L199 264L202 263L203 267L204 267L205 264L206 264C209.231 268.605 220.425 269.914 226 271L228 267L243 275L244 275L245 275C247.287 272.526 249.787 272.048 250 276L253 275C255.316 277.821 257.819 277.274 261 276C261.941 280.301 273.548 279.842 277 278L277 282L293 282L298 289L299 285L302 286L305 268L304 268L304 273L303 273L303 269L302 269L301 274C296.77 272.23 289.931 269.184 286 272C283.809 269.816 280.784 266.459 278 269L277 269L276 269L261 262C260.396 265.626 257.25 266.001 258 263L248 262L247 262L245 257C240.093 259.079 236.09 259.861 232 256C229.041 256.779 225.474 257.674 225 254L201 254L189 248L182 245L173 247L172 241L163 246L162 243L159 244L158 240L147 238L148 241L143 240L145 237C139.462 237.782 133.373 242.817 131 235L128 238C124.94 233.296 120.979 234.61 116 235L116 232L109 231L109 235L108 235L105 230L103 231L103 229L101 231L94 230L94 227L80 228C80.4857 223.323 76.2048 219.217 73 216M310 217L308 222L310 217z"/>
<path style="fill:#9c9b9e; stroke:none;" d="M71 218L74.0394 283L75.2662 312L62 332L62 333L66 336L74 320L75 320C77.4468 330.277 72.8314 344.827 84.0008 350.581C88.9026 353.106 95.6444 352 101 352L137 352C171.114 352 205.962 349.92 240 352.089C253.307 352.937 266.654 353 280 353C285.632 353 292.967 354.202 298.285 352.041C308.913 347.723 307 333.559 307 324L313 329L316 338L318 338L319 337L307.225 314L308.961 284L311 220L310 220L302 286L299 285L298 289L293 282L277 282L277 278C272.711 279.049 263.883 279.679 261 276L250 276L251 273L245 275L244 275L243 275L228 267L226 271L206 264L205 264L204 267L203 267L199 264L203 270L202 270L201 267L200 267L196 274C206.325 274.335 201.033 279.223 202.448 286C203.209 289.646 206.091 292.291 203.508 295.941C200.19 300.633 193.11 299.786 188.004 299.567C179.373 299.197 175.182 284.543 179.742 278.189C183.348 273.164 188.775 274.776 194 275L194 274L191 269L196 266L196 265L183 259L182 259L181 259L181 261L180 261L179 261L162 254L155 257L144 250L125 251L125 250L127 248L109 246L99 241L96 243L95 243L94 241L91 243L85 241L85 239L80 241C76.9266 234.07 78.0558 221.798 71 218z"/>
<path style="fill:#dab498; stroke:none;" d="M311 222L311 227L312 227L311 222M308 223L308 228L309 228L308 223M71.3333 224.667L71.6667 225.333L71.3333 224.667M88 228L87 229L88 228M93 230L90 229L93 230M108 229L109 230L108 229M308 229L307 247L308 247L308 229M127 232L128 233L127 232M117 233L118 234L117 233z"/>
<path style="fill:#9c9b9e; stroke:none;" d="M82 234L83 235L82 234z"/>
<path style="fill:#dab498; stroke:none;" d="M133 237L138 236L133 237M310 235L310 243L311 243L310 235M139 236L140 237L139 236z"/>
<path style="fill:#9c9b9e; stroke:none;" d="M92 239L93 240L92 239z"/>
<path style="fill:#dab498; stroke:none;" d="M83 241L84 242L83 241M87 242L88 243L87 242M165 242L166 243L165 242M174.667 244.333L175.333 244.667L174.667 244.333M177 244L177 245L180 245L177 244M106 245L107 246L106 245M72 247L73 248L72 247M105 247L107 249L105 247z"/>
<path style="fill:#9c9b9e; stroke:none;" d="M128 247L129 248L128 247M134 247L135 248L134 247z"/>
<path style="fill:#dab498; stroke:none;" d="M310 247L311 248L310 247M203 248L204 249L203 248M306 248L306 257L307 257L306 248M181 249L181 250L177 250L181 249M209 249L210 250L209 249z"/>
<path style="fill:#9c9b9e; stroke:none;" d="M141 250L142 251L141 250z"/>
<path style="fill:#dab498; stroke:none;" d="M115 251L116 252L115 251z"/>
<path style="fill:#9c9b9e; stroke:none;" d="M150 251L150 252L153 253L150 251z"/>
<path style="fill:#dab498; stroke:none;" d="M205 251L205 252L209 252L205 251M213 253L213 254L221 254L221 252L213 253z"/>
<path style="fill:#9c9b9e; stroke:none;" d="M166 256L167 257L166 256z"/>
<path style="fill:#dab498; stroke:none;" d="M236.333 256.667L236.667 257.333L236.333 256.667z"/>
<path style="fill:#9c9b9e; stroke:none;" d="M169 257L170 258L169 257M179.667 258.333L180.333 258.667L179.667 258.333M184 258L185 259L184 258z"/>
<path style="fill:#dab498; stroke:none;" d="M225 259L225 260L219 259L225 259M305 258L305 265L306 265L305 258M171.667 259.333L172.333 259.667L171.667 259.333z"/>
<path style="fill:#9c9b9e; stroke:none;" d="M189 259L190 260L189 259M195 259L196 260L195 259M199 259L200 262L201 262L201 259L199 259z"/>
<path style="fill:#dab498; stroke:none;" d="M230.667 259.667L230.333 260.333L230.667 259.667M244 259L243 260L244 259z"/>
<path style="fill:#9c9b9e; stroke:none;" d="M191.667 260.333L192.333 260.667L191.667 260.333M202.333 260.667L202.667 261.333L202.333 260.667M196 261L198 265L196 261z"/>
<path style="fill:#dab498; stroke:none;" d="M234 261L233 262L234 261M182 262L183 263L182 262z"/>
<path style="fill:#9c9b9e; stroke:none;" d="M192 264L195 262L192 264M198 262L199 263L198 262M204 262L205 263L204 262z"/>
<path style="fill:#dab498; stroke:none;" d="M189 264L190 265L189 264M309.333 264.667L309.667 265.333L309.333 264.667z"/>
<path style="fill:#9c9b9e; stroke:none;" d="M232 265L233 266L232 265z"/>
<path style="fill:#dab498; stroke:none;" d="M190 266L193 268L193 267L190 266M194 266L195 267L194 266M268 267L267 268L268 267M293 268L296 271L293 268M191 269L192 270L191 269M204 269L205 270L204 269z"/>
<path style="fill:#9c9b9e; stroke:none;" d="M225 269L226 270L225 269z"/>
<path style="fill:#dab498; stroke:none;" d="M191 271L192 272L191 271M197 271L194 275L197 271M183 274L184 275L183 274M202 274L203 275L202 274z"/>
<path style="fill:#9c9b9e; stroke:none;" d="M253.667 274.333L254.333 274.667L253.667 274.333M261 274L262 275L261 274z"/>
<path style="fill:#dab498; stroke:none;" d="M192 275L193 276L192 275z"/>
<path style="fill:#9c9b9e; stroke:none;" d="M266 275L267 276L266 275M269.333 275.667L269.667 276.333L269.333 275.667z"/>
<path style="fill:#dab498; stroke:none;" d="M180 276L179 278L180 276M248 276L249 277L248 276z"/>
<path style="fill:#9c9b9e; stroke:none;" d="M262 277L263 278L262 277M278 278L279 279L278 278z"/>
<path style="fill:#dab498; stroke:none;" d="M178 279L179 280L178 279M261 280L262 281L261 280z"/>
<path style="fill:#9c9b9e; stroke:none;" d="M288.667 280.333L289.333 280.667L288.667 280.333M296 283L297 284L296 283z"/>
<path style="fill:#dab498; stroke:none;" d="M202 287L203 288L202 287M308 288L309 289L308 288M178.333 289.667L178.667 290.333L178.333 289.667M179 292L180 293L179 292M180 294L181 295L180 294M204 295L205 296L204 295M182 297L185 300L182 297M307.333 305.667L307.667 306.333L307.333 305.667M74 320L73 321L73 322L74 323L75 323L76 322L76 321L74 320M75 321L74 322L75 321M72 323C69.1797 326.463 63.2725 332.314 68 336L67 333L72 323M307 324L315 340L313 329L307 324M76.3333 336.667L76.6667 337.333L76.3333 336.667M306.333 337.667L306.667 338.333L306.333 337.667z"/>
<path style="fill:#785c4b; stroke:none;" d="M87 352L87 353C100.651 359.862 121.924 356 137 356L248 356L281 356C287.036 356 292.708 356.864 297 352C276.466 356.889 251.995 352 231 352L87 352z"/>
<path style="fill:#9c9b9e; stroke:none;" d="M88 353L89 354L88 353z"/>
</svg>
